<svg xmlns="http://www.w3.org/2000/svg" viewBox="0 0 240 64" width="240" height="64">
  <style>
    @import url('https://fonts.googleapis.com/css2?family=Inter:wght@800&amp;display=swap');
    .text {
      font-family: 'Inter', system-ui, -apple-system, sans-serif;
      font-size: 34px;
      font-weight: 800;
      letter-spacing: -0.5px;
      fill: #0f172a; /* Slate 900 */
    }
  </style>
  <g transform="translate(8, 8)">
    <rect width="48" height="48" rx="12" fill="#1d4ed8" />
    <svg x="9" y="9" width="30" height="30" viewBox="0 0 24 24" fill="none" stroke="white" stroke-width="2" stroke-linecap="round" stroke-linejoin="round">
      <rect width="5" height="5" x="3" y="3" rx="1" />
      <rect width="5" height="5" x="16" y="3" rx="1" />
      <rect width="5" height="5" x="3" y="16" rx="1" />
      <path d="M21 16h-3a2 2 0 0 0-2 2v3" />
      <path d="M21 21v.01" />
      <path d="M12 7v3a2 2 0 0 1-2 2H7" />
      <path d="M3 12h.01" />
      <path d="M12 3h.01" />
      <path d="M12 16v.01" />
      <path d="M16 12h1" />
      <path d="M21 12v.01" />
      <path d="M12 21v-1" />
    </svg>
  </g>
  <text x="68" y="44" class="text">NoMenu</text>
</svg>
